<svg width="100" height="100" viewBox="0 0 100 100" fill="none" xmlns="http://www.w3.org/2000/svg">
<rect width="100" height="100" fill="#050A0E"/>
<path d="M54.552 78H44.952V48.816C44.952 48.56 44.92 48.368 44.856 48.24C44.28 47.152 43.288 46.16 41.88 45.264C41.816 45.2 41.56 45.168 41.112 45.168H34.392C33.048 45.168 31.16 46.48 28.728 49.104V78H19.128V45.072L18.168 36.528H27.576L28.056 38.736C30.552 36.944 32.568 36.048 34.104 36.048H41.208C43.896 36.048 46.232 36.752 48.216 38.16C50.2 39.632 51.736 41.168 52.824 42.768C53.976 44.304 54.552 46.256 54.552 48.624V78Z" fill="#00F0FF"/>
<path d="M77.2193 78H67.5233L66.3713 70.608V20.592H75.9713V69.552L77.2193 78Z" fill="#FCEE09"/>
</svg>
