<svg viewBox="0 0 800 800" xmlns="http://www.w3.org/2000/svg" role="graphics-symbol"><rect width="800" height="800" rx="400" fill="#fff"/><g clip-path="url(#clip0_2_12)"><path d="M404.135 669.973C461.571 464.622 459.904 463.689 501.415 317.271L511.393 323.047C516.828 326.159 521.266 323.599 521.266 317.35V247.508C532.293 208.937 540.906 179.11 543.453 170.183H588.417L663.13 239.369L614.057 281.773L651.171 321.906L406.606 669.974C405.424 671.943 403.757 671.497 404.138 669.974L404.135 669.973Z" fill="#000"/><path d="M430.851 227.342C433.083 227.342 434.868 228.563 434.868 230.099V265.874C434.868 267.37 433.07 268.592 430.851 268.592H370.462C368.23 268.592 366.432 267.371 366.432 265.861V230.073C366.432 228.563 368.23 227.316 370.449 227.316L430.851 227.342ZM505.419 187.721L438.964 226.082C439.726 227.263 440.198 228.616 440.198 230.086V265.886C440.198 267.724 439.463 269.405 438.282 270.744L505.407 309.498C509.976 312.15 513.731 309.984 513.731 304.706V192.526C513.731 187.235 510.003 185.082 505.421 187.721H505.419ZM361.088 265.886V230.073C361.088 228.602 361.56 227.251 362.322 226.082L295.867 187.695C291.298 185.07 287.544 187.222 287.544 192.5V304.681C287.544 309.959 291.299 312.125 295.881 309.473L362.993 270.718C361.812 269.366 361.102 267.699 361.102 265.86L361.089 265.886H361.088Z" fill="#000"/><path d="M394.525 669.973H396.993C339.57 464.622 341.224 463.689 299.713 317.271L289.736 323.047C284.314 326.159 279.863 323.599 279.863 317.35V247.508C268.835 208.951 260.223 179.11 257.677 170.183H212.726L138.001 239.369L187.061 281.773L149.947 321.919L394.525 669.974V669.973Z" fill="#000"/><path d="M416.882 325.186C416.882 335.206 408.759 343.329 398.739 343.329C388.719 343.329 380.596 335.206 380.596 325.186C380.596 315.166 388.719 307.043 398.739 307.043C408.759 307.043 416.882 315.166 416.882 325.186Z" fill="#000"/><path d="M416.882 433.034C416.882 443.054 408.759 451.177 398.739 451.177C388.719 451.177 380.596 443.054 380.596 433.034C380.596 423.014 388.719 414.891 398.739 414.891C408.759 414.891 416.882 423.014 416.882 433.034Z" fill="#000"/><path d="M416.882 540.909C416.882 550.929 408.759 559.052 398.739 559.052C388.719 559.052 380.596 550.929 380.596 540.909C380.596 530.889 388.719 522.766 398.739 522.766C408.759 522.766 416.882 530.889 416.882 540.909Z" fill="#000"/></g><defs><clipPath id="clip0_2_12"><rect width="525" height="502" fill="#fff" transform="translate(138 169)"/></clipPath></defs></svg>
