<svg xmlns="http://www.w3.org/2000/svg" viewBox="0 0 40 40" role="graphics-symbol"><title>Express</title><rect width="40" height="40" rx="20" fill="#fff"/><path d="M32 26.5514C31.6507 26.6835 31.2651 26.6832 30.916 26.5506C30.5669 26.4179 30.2785 26.1621 30.105 25.8314L26.655 21.0604L26.155 20.3934L22.152 25.8374C21.989 26.1543 21.7162 26.4009 21.3845 26.5312C21.0529 26.6615 20.6851 26.6665 20.35 26.5454L25.508 19.6254L20.71 13.3744C21.055 13.2501 21.4323 13.2484 21.7784 13.3697C22.1244 13.491 22.4181 13.7279 22.61 14.0404L26.186 18.8704L29.782 14.0604C29.9463 13.7492 30.2192 13.5092 30.5488 13.386C30.8785 13.2629 31.2419 13.2651 31.57 13.3924L29.708 15.8634L27.186 19.1464C27.116 19.2089 27.0599 19.2855 27.0216 19.3711C26.9832 19.4568 26.9633 19.5495 26.9633 19.6434C26.9633 19.7373 26.9832 19.8301 27.0216 19.9157C27.0599 20.0014 27.116 20.0779 27.186 20.1404L31.99 26.5524L32 26.5514ZM8.00201 19.5394L8.42201 17.4644C9.57601 13.3614 14.28 11.6544 17.516 14.1944C19.411 15.6834 19.884 17.7914 19.791 20.1674H9.11601C8.94301 24.4104 12.005 26.9724 15.92 25.6634C16.5547 25.435 17.1228 25.0526 17.5734 24.5507C18.024 24.0488 18.3431 23.4429 18.502 22.7874C18.709 22.1214 19.05 22.0074 19.676 22.1994C19.5717 23.0118 19.2845 23.7899 18.8361 24.4753C18.3876 25.1607 17.7896 25.7355 17.087 26.1564C15.9264 26.7912 14.5948 27.0428 13.2826 26.8753C11.9704 26.7077 10.7448 26.1295 9.78101 25.2234C8.82804 24.1508 8.25209 22.7959 8.14101 21.3654C8.14101 21.1304 8.06101 20.9104 8.00701 20.6994C8.00214 20.3131 7.99981 19.9267 8.00001 19.5404L8.00201 19.5394ZM9.12901 19.2534H18.783C18.723 16.1774 16.782 13.9954 14.193 13.9754C11.311 13.9354 9.24901 16.0694 9.12201 19.2394L9.12901 19.2534Z" fill="#000"/></svg>
