<svg viewBox="0 0 12 12" xmlns="http://www.w3.org/2000/svg"><title>GitHub</title><rect width="12" height="12" rx="6" fill="#fff"/><path d="M6 0C7.5913 0 9.11742 0.632141 10.2426 1.75736C11.3679 2.88258 12 4.4087 12 6C12 7.5913 11.3679 9.11742 10.2426 10.2426C9.11742 11.3679 7.5913 12 6 12C4.4087 12 2.88258 11.3679 1.75736 10.2426C0.632141 9.11742 0 7.5913 0 6C0 4.4087 0.632141 2.88258 1.75736 1.75736C2.88258 0.632141 4.4087 0 6 0ZM6 0.98C3.243 0.98 1 3.223 1 6C0.998713 7.05546 1.33013 8.08447 1.94715 8.94079C2.56416 9.79712 3.43539 10.4372 4.437 10.77C4.45193 10.7722 4.46694 10.7739 4.482 10.775C4.685 10.785 4.761 10.646 4.761 10.525L4.754 9.671C3.364 9.974 3.07 8.997 3.07 8.997C2.843 8.417 2.515 8.263 2.515 8.263C2.061 7.951 2.549 7.957 2.549 7.957C2.914 7.983 3.153 8.245 3.257 8.387L3.315 8.475C3.761 9.242 4.485 9.021 4.77 8.893C4.816 8.568 4.944 8.347 5.087 8.221C3.977 8.094 2.81 7.663 2.81 5.739C2.81 5.191 3.005 4.743 3.325 4.391L3.295 4.306C3.231 4.103 3.143 3.648 3.374 3.062L3.414 3.055C3.538 3.039 3.962 3.042 4.749 3.577C5.15667 3.46549 5.57735 3.40866 6 3.408C6.425 3.41 6.853 3.466 7.252 3.578C8.207 2.928 8.626 3.062 8.626 3.062C8.898 3.754 8.726 4.264 8.676 4.392C8.996 4.742 9.189 5.191 9.189 5.739C9.189 7.669 8.02 8.093 6.906 8.217C7.086 8.372 7.246 8.679 7.246 9.147L7.24 10.525C7.24 10.655 7.325 10.807 7.563 10.77C8.56461 10.4372 9.43584 9.79712 10.0529 8.94079C10.6699 8.08447 11.0013 7.05546 11 6C11 3.223 8.757 0.98 6 0.98Z" fill="#000"/></svg>
